<svg width="1600" height="900" viewBox="0 0 1600 900" fill="none" xmlns="http://www.w3.org/2000/svg">
  <defs>
    <linearGradient id="bg2" x1="1600" y1="0" x2="0" y2="900" gradientUnits="userSpaceOnUse">
      <stop stop-color="#0D2457" />
      <stop offset="1" stop-color="#305E96" />
    </linearGradient>
    <radialGradient id="glow2" cx="0" cy="0" r="1" gradientUnits="userSpaceOnUse" gradientTransform="translate(1220 220) rotate(130) scale(680 360)">
      <stop stop-color="#EFCF86" stop-opacity="0.58" />
      <stop offset="1" stop-color="#EFCF86" stop-opacity="0" />
    </radialGradient>
  </defs>
  <rect width="1600" height="900" fill="url(#bg2)"/>
  <circle cx="1220" cy="220" r="320" fill="url(#glow2)"/>
  <rect x="130" y="130" width="1340" height="640" rx="32" fill="#F9FCFF" fill-opacity="0.08"/>
  <path d="M140 640C280 592 404 580 532 626C674 678 746 748 900 758C1088 772 1220 686 1454 524" stroke="#E8F1FF" stroke-opacity="0.32" stroke-width="10" stroke-linecap="round"/>
  <path d="M118 706C276 646 448 634 600 684C782 744 884 812 1062 808C1240 804 1360 738 1510 650" stroke="#F5DFA6" stroke-opacity="0.32" stroke-width="8" stroke-linecap="round"/>
  <circle cx="304" cy="260" r="62" fill="#F5DFA6" fill-opacity="0.44"/>
  <circle cx="304" cy="260" r="20" fill="#102556"/>
</svg>
